<svg width="308" height="308" viewBox="0 0 308 308" fill="none" xmlns="http://www.w3.org/2000/svg">
<rect x="4" y="4" width="300" height="300" stroke="#CCB464" stroke-width="8"/>
<path d="M49.1031 62.6289C49.1031 66.0378 50.3677 68.512 52.8969 70.0516C55.4261 71.921 60.8144 73.8454 69.0619 75.8248C77.7491 77.9141 84.0722 80.7732 88.0309 84.4021C92.0997 88.0309 94.134 93.2543 94.134 100.072C94.134 107.22 91.4399 112.993 86.0516 117.392C80.7732 121.79 73.8454 123.99 65.268 123.99C52.8419 123.99 41.6254 119.591 31.6186 110.794L40.1959 100.567C48.5533 107.715 57.0206 111.289 65.5979 111.289C69.8866 111.289 73.3505 110.354 75.9897 108.485C78.6289 106.505 79.9485 103.976 79.9485 100.897C79.9485 97.8179 78.7388 95.3986 76.3196 93.6392C74.0103 91.8797 69.8316 90.2852 63.7835 88.8557C53.3368 86.4364 46.079 83.5773 42.0103 80.2784C37.2818 76.6495 34.9175 71.0962 34.9175 63.6186C34.9175 56.3608 37.5567 50.6976 42.8351 46.6289C48.1134 42.4502 54.8763 40.3608 63.1237 40.3608C74.2302 40.3608 83.7423 43.6048 91.6598 50.0928L84.4021 60.3196C81.9828 58.1203 78.7388 56.3608 74.6701 55.0413C70.6014 53.6117 66.5876 52.8969 62.6289 52.8969C58.5601 52.8969 55.2612 53.7766 52.732 55.5361C50.3127 57.1856 49.1031 59.5498 49.1031 62.6289Z" fill="#CCB464"/>
<path d="M122.41 104.691L114.328 123H99.8125L135.441 42.3402H149.957L185.421 123H170.905L162.823 104.691H122.41ZM157.38 91.9897L142.699 58.8351L128.019 91.9897H157.38Z" fill="#CCB464"/>
<path d="M257.19 42.3402H270.716V123H256.035L210.345 64.1134V123H196.654V42.3402H210.345L257.19 102.546V42.3402Z" fill="#CCB464"/>
<path d="M76.732 188.711V257H63.0412V188.711H38.6289V176.34H101.144V188.711H76.732Z" fill="#CCB464"/>
<path d="M153.339 186.732C145.311 186.732 138.548 189.591 133.05 195.309C127.552 201.028 124.803 207.955 124.803 216.093C124.803 224.23 127.552 231.158 133.05 236.876C138.548 242.485 145.311 245.289 153.339 245.289C161.366 245.289 168.129 242.485 173.627 236.876C179.126 231.158 181.875 224.23 181.875 216.093C181.875 207.955 179.126 201.028 173.627 195.309C168.129 189.591 161.366 186.732 153.339 186.732ZM153.339 257.825C141.242 257.825 131.126 253.866 122.988 245.948C114.851 237.921 110.782 227.969 110.782 216.093C110.782 204.217 114.851 194.32 122.988 186.402C131.126 178.375 141.242 174.361 153.339 174.361C165.435 174.361 175.552 178.375 183.689 186.402C191.827 194.32 195.895 204.217 195.895 216.093C195.895 227.969 191.772 237.866 183.524 245.784C175.277 253.811 165.215 257.825 153.339 257.825Z" fill="#CCB464"/>
<path d="M223.978 196.629C223.978 200.038 225.243 202.512 227.772 204.052C230.301 205.921 235.689 207.845 243.937 209.825C252.624 211.914 258.947 214.773 262.906 218.402C266.975 222.031 269.009 227.254 269.009 234.072C269.009 241.22 266.315 246.993 260.927 251.392C255.648 255.79 248.72 257.99 240.143 257.99C227.717 257.99 216.5 253.591 206.494 244.794L215.071 234.567C223.428 241.715 231.896 245.289 240.473 245.289C244.762 245.289 248.226 244.354 250.865 242.485C253.504 240.505 254.823 237.976 254.823 234.897C254.823 231.818 253.614 229.399 251.195 227.639C248.885 225.88 244.707 224.285 238.659 222.856C228.212 220.436 220.954 217.577 216.885 214.278C212.157 210.65 209.793 205.096 209.793 197.619C209.793 190.361 212.432 184.698 217.71 180.629C222.988 176.45 229.751 174.361 237.999 174.361C249.105 174.361 258.617 177.605 266.535 184.093L259.277 194.32C256.858 192.12 253.614 190.361 249.545 189.041C245.476 187.612 241.463 186.897 237.504 186.897C233.435 186.897 230.136 187.777 227.607 189.536C225.188 191.186 223.978 193.55 223.978 196.629Z" fill="#CCB464"/>
<line x1="19" y1="151.5" x2="288" y2="151.5" stroke="#CCB464" stroke-width="5"/>
</svg>
